<svg viewBox="0 0 24 24" xmlns="http://www.w3.org/2000/svg">
<g id="create"><circle cx="12" cy="12" r="10"></circle><path d="M15 12L12 12M12 12L9 12M12 12L12 9M12 12L12 15"></path></g>
<g id="forum"><circle cx="12" cy="6" r="4"></circle><path d="M18 9C19.6569 9 21 7.88071 21 6.5C21 5.11929 19.6569 4 18 4"></path><path d="M6 9C4.34315 9 3 7.88071 3 6.5C3 5.11929 4.34315 4 6 4"></path><ellipse cx="12" cy="17" rx="6" ry="4"></ellipse><path d="M20 19C21.7542 18.6153 23 17.6411 23 16.5C23 15.3589 21.7542 14.3847 20 14"></path><path d="M4 19C2.24575 18.6153 1 17.6411 1 16.5C1 15.3589 2.24575 14.3847 4 14"></path></g>
<path id="gaming" d="M20.4086 9.35258C22.5305 10.5065 22.5305 13.4935 20.4086 14.6474L7.59662 21.6145C5.53435 22.736 3 21.2763 3 18.9671L3 5.0329C3 2.72368 5.53435 1.26402 7.59661 2.38548L20.4086 9.35258Z"></path>
<path id="hosting" d="M14.381 9.02721C14.9767 8.81911 15.6178 8.70588 16.2857 8.70588C16.9404 8.70588 17.5693 8.81468 18.1551 9.01498M7.11616 11.6089C6.8475 11.5567 6.56983 11.5294 6.28571 11.5294C3.91878 11.5294 2 13.4256 2 15.7647C2 18.1038 3.91878 20 6.28571 20H16.2857C19.4416 20 22 17.4717 22 14.3529C22 11.8811 20.393 9.78024 18.1551 9.01498M7.11616 11.6089C6.88706 10.9978 6.7619 10.3369 6.7619 9.64706C6.7619 6.52827 9.32028 4 12.4762 4C15.4159 4 17.8371 6.19371 18.1551 9.01498M7.11616 11.6089C7.68059 11.7184 8.20528 11.9374 8.66667 12.2426"></path>
<g id="account"><path d="M13.7654 2.15224C13.3978 2 12.9319 2 12 2C11.0681 2 10.6022 2 10.2346 2.15224C9.74457 2.35523 9.35522 2.74458 9.15223 3.23463C9.05957 3.45834 9.0233 3.7185 9.00911 4.09799C8.98826 4.65568 8.70226 5.17189 8.21894 5.45093C7.73564 5.72996 7.14559 5.71954 6.65219 5.45876C6.31645 5.2813 6.07301 5.18262 5.83294 5.15102C5.30704 5.08178 4.77518 5.22429 4.35436 5.5472C4.03874 5.78938 3.80577 6.1929 3.33983 6.99993C2.87389 7.80697 2.64092 8.21048 2.58899 8.60491C2.51976 9.1308 2.66227 9.66266 2.98518 10.0835C3.13256 10.2756 3.3397 10.437 3.66119 10.639C4.1338 10.936 4.43789 11.4419 4.43786 12C4.43783 12.5581 4.13375 13.0639 3.66118 13.3608C3.33965 13.5629 3.13248 13.7244 2.98508 13.9165C2.66217 14.3373 2.51966 14.8691 2.5889 15.395C2.64082 15.7894 2.87379 16.193 3.33973 17C3.80568 17.807 4.03865 18.2106 4.35426 18.4527C4.77508 18.7756 5.30694 18.9181 5.83284 18.8489C6.07289 18.8173 6.31632 18.7186 6.65204 18.5412C7.14547 18.2804 7.73556 18.27 8.2189 18.549C8.70224 18.8281 8.98826 19.3443 9.00911 19.9021C9.02331 20.2815 9.05957 20.5417 9.15223 20.7654C9.35522 21.2554 9.74457 21.6448 10.2346 21.8478C10.6022 22 11.0681 22 12 22C12.9319 22 13.3978 22 13.7654 21.8478C14.2554 21.6448 14.6448 21.2554 14.8477 20.7654C14.9404 20.5417 14.9767 20.2815 14.9909 19.902C15.0117 19.3443 15.2977 18.8281 15.781 18.549C16.2643 18.2699 16.8544 18.2804 17.3479 18.5412C17.6836 18.7186 17.927 18.8172 18.167 18.8488C18.6929 18.9181 19.2248 18.7756 19.6456 18.4527C19.9612 18.2105 20.1942 17.807 20.6601 16.9999C21.1261 16.1929 21.3591 15.7894 21.411 15.395C21.4802 14.8691 21.3377 14.3372 21.0148 13.9164C20.8674 13.7243 20.6602 13.5628 20.3387 13.3608C19.8662 13.0639 19.5621 12.558 19.5621 11.9999C19.5621 11.4418 19.8662 10.9361 20.3387 10.6392C20.6603 10.4371 20.8675 10.2757 21.0149 10.0835C21.3378 9.66273 21.4803 9.13087 21.4111 8.60497C21.3592 8.21055 21.1262 7.80703 20.6602 7C20.1943 6.19297 19.9613 5.78945 19.6457 5.54727C19.2249 5.22436 18.693 5.08185 18.1671 5.15109C17.9271 5.18269 17.6837 5.28136 17.3479 5.4588C16.8545 5.71959 16.2644 5.73002 15.7811 5.45096C15.2977 5.17191 15.0117 4.65566 14.9909 4.09794C14.9767 3.71848 14.9404 3.45833 14.8477 3.23463C14.6448 2.74458 14.2554 2.35523 13.7654 2.15224Z"></path><circle fill="none" cx="12" cy="12" r="3"></circle></g>
<g id="search"><path d="M5.5 10.7655C5.50003 8.01511 7.44296 5.64777 10.1405 5.1113C12.8381 4.57483 15.539 6.01866 16.5913 8.55977C17.6437 11.1009 16.7544 14.0315 14.4674 15.5593C12.1804 17.0871 9.13257 16.7866 7.188 14.8415C6.10716 13.7604 5.49998 12.2942 5.5 10.7655Z"></path><path d="M17.029 16.5295L19.5 19.0005"></path></g>
</svg>