<svg viewBox="0 0 24 24" xmlns="http://www.w3.org/2000/svg">
<g id="create" ><path d="M15 12L12 12M12 12L9 12M12 12L12 9M12 12L12 15"></path><path d="M22 12C22 16.714 22 19.0711 20.5355 20.5355C19.0711 22 16.714 22 12 22C7.28595 22 4.92893 22 3.46447 20.5355C2 19.0711 2 16.714 2 12C2 7.28595 2 4.92893 3.46447 3.46447C4.92893 2 7.28595 2 12 2C16.714 2 19.0711 2 20.5355 3.46447C21.5093 4.43821 21.8356 5.80655 21.9449 8"></path></g>
<g id="forum"><circle cx="9" cy="6" r="4"></circle><path d="M15 9C16.6569 9 18 7.65685 18 6C18 4.34315 16.6569 3 15 3" stroke-linecap="round"></path> <path d="M5.88915 20.5843C6.82627 20.8504 7.88256 21 9 21C12.866 21 16 19.2091 16 17C16 14.7909 12.866 13 9 13C5.13401 13 2 14.7909 2 17C2 17.3453 2.07657 17.6804 2.22053 18" stroke-linecap="round"></path> <path d="M18 14C19.7542 14.3847 21 15.3589 21 16.5C21 17.5293 19.9863 18.4229 18.5 18.8704" stroke-linecap="round"></path></g>
<path id="gaming" d="M3 12v6.967c0 2.31 2.534 3.769 4.597 2.648l3.203-1.742M3 8V5.033c0-2.31 2.534-3.769 4.597-2.648l12.812 6.968a2.998 2.998 0 0 1 0 5.294l-6.406 3.484"/>
<g id="hosting"><path d="M4 18V6"></path><path d="M20 12L20 18"></path><path d="M12 10C16.4183 10 20 8.20914 20 6C20 3.79086 16.4183 2 12 2C7.58172 2 4 3.79086 4 6C4 8.20914 7.58172 10 12 10Z"></path><path d="M20 12C20 14.2091 16.4183 16 12 16C7.58172 16 4 14.2091 4 12"></path><path d="M20 18C20 20.2091 16.4183 22 12 22C7.58172 22 4 20.2091 4 18"></path></g>
<g id="account"><circle cx="12" cy="12" r="3"></circle><path d="M3.66122 10.6392C4.13377 10.9361 4.43782 11.4419 4.43782 11.9999C4.43781 12.558 4.13376 13.0638 3.66122 13.3607C3.33966 13.5627 3.13248 13.7242 2.98508 13.9163C2.66217 14.3372 2.51966 14.869 2.5889 15.3949C2.64082 15.7893 2.87379 16.1928 3.33973 16.9999C3.80568 17.8069 4.03865 18.2104 4.35426 18.4526C4.77508 18.7755 5.30694 18.918 5.83284 18.8488C6.07287 18.8172 6.31628 18.7185 6.65196 18.5411C7.14544 18.2803 7.73558 18.2699 8.21895 18.549C8.70227 18.8281 8.98827 19.3443 9.00912 19.902C9.02332 20.2815 9.05958 20.5417 9.15224 20.7654C9.35523 21.2554 9.74458 21.6448 10.2346 21.8478C10.6022 22 11.0681 22 12 22C12.9319 22 13.3978 22 13.7654 21.8478C14.2554 21.6448 14.6448 21.2554 14.8478 20.7654C14.9404 20.5417 14.9767 20.2815 14.9909 19.9021C15.0117 19.3443 15.2977 18.8281 15.7811 18.549C16.2644 18.27 16.8545 18.2804 17.3479 18.5412C17.6837 18.7186 17.9271 18.8173 18.1671 18.8489C18.693 18.9182 19.2249 18.7756 19.6457 18.4527C19.9613 18.2106 20.1943 17.807 20.6603 17C20.8677 16.6407 21.029 16.3614 21.1486 16.1272M20.3387 13.3608C19.8662 13.0639 19.5622 12.5581 19.5621 12.0001C19.5621 11.442 19.8662 10.9361 20.3387 10.6392C20.6603 10.4372 20.8674 10.2757 21.0148 10.0836C21.3377 9.66278 21.4802 9.13092 21.411 8.60502C21.3591 8.2106 21.1261 7.80708 20.6601 7.00005C20.1942 6.19301 19.9612 5.7895 19.6456 5.54732C19.2248 5.22441 18.6929 5.0819 18.167 5.15113C17.927 5.18274 17.6836 5.2814 17.3479 5.45883C16.8544 5.71964 16.2643 5.73004 15.781 5.45096C15.2977 5.1719 15.0117 4.6557 14.9909 4.09803C14.9767 3.71852 14.9404 3.45835 14.8478 3.23463C14.6448 2.74458 14.2554 2.35523 13.7654 2.15224C13.3978 2 12.9319 2 12 2C11.0681 2 10.6022 2 10.2346 2.15224C9.74458 2.35523 9.35523 2.74458 9.15224 3.23463C9.05958 3.45833 9.02332 3.71848 9.00912 4.09794C8.98826 4.65566 8.70225 5.17191 8.21891 5.45096C7.73557 5.73002 7.14548 5.71959 6.65205 5.4588C6.31633 5.28136 6.0729 5.18269 5.83285 5.15108C5.30695 5.08185 4.77509 5.22436 4.35427 5.54727C4.03866 5.78945 3.80569 6.19297 3.33974 7C3.13231 7.35929 2.97105 7.63859 2.85138 7.87273"></path></g>
<g id="search"><path d="M5.5 10.7655C5.50003 8.01511 7.44296 5.64777 10.1405 5.1113C12.8381 4.57483 15.539 6.01866 16.5913 8.55977C17.6437 11.1009 16.7544 14.0315 14.4674 15.5593C12.1804 17.0871 9.13257 16.7866 7.188 14.8415C6.10716 13.7604 5.49998 12.2942 5.5 10.7655Z"></path><path d="M17.029 16.5295L19.5 19.0005"></path></g>
</svg>